# xmcd
#
# Track frame offsets: 
#        150
#        12336
#        34604
#        51005
#        63345
#        81559
#        100587
#        117537
#        138647
#        157778
#        174105
#        198462
#        212304
#        236124
#        250690
#        263818
#        279718
#        300335
#        318741
#
# Disc length: 4432 seconds
#
# Revision: 0
# Processed by: cddbd v1.5.2PL0 Copyright (c) Steve Scherf et al.
# Submitted via: ExactAudioCopy v0.95b4
#
DISCID=01114e13
DTITLE=Raphael - 19 Temas Inolvidables
DYEAR=2000
DGENRE=Latin
TTITLE0=Yo soy aquel
TTITLE1=Estar enamorado
TTITLE2=Provocación
TTITLE3=Digan lo que digan
TTITLE4=No puedo arrancarte de mi
TTITLE5=En carne viva
TTITLE6=Cuando tu no estas
TTITLE7=Como yo te amo
TTITLE8=Amor mio
TTITLE9=Cierro mis ojos
TTITLE10=Que tal te va sin mi
TTITLE11=Mi gran noche
TTITLE12=Que sabe nadie
TTITLE13=Los amantes
TTITLE14=Hablemos del amor
TTITLE15=Toco madera
TTITLE16=Escandalo
TTITLE17=Tarantula
TTITLE18=Se me olvidó que te olvidé
EXTD=
EXTT0=
EXTT1=
EXTT2=
EXTT3=
EXTT4=
EXTT5=
EXTT6=
EXTT7=
EXTT8=
EXTT9=
EXTT10=
EXTT11=
EXTT12=
EXTT13=
EXTT14=
EXTT15=
EXTT16=
EXTT17=
EXTT18=
PLAYORDER=
